# xmcd
#
# Track frame offsets: 
#        183
#        16870
#        32610
#        55028
#        69635
#        88873
#        129940
#        147843
#        174488
#
# Disc length: 2499 seconds
#
# Revision: 2
# Processed by: cddbd v1.5.2PL0 Copyright (c) Steve Scherf et al.
# Submitted via: ExactAudioCopyFreeDBPlugin 1.0
#
DISCID=6f09c109
DTITLE=Albert King - New Orleans Heat
DYEAR=1989
DGENRE=Blues
TTITLE0=Get Out Of My Life Woman
TTITLE1=Born Under A Bad Sign
TTITLE2=The Feeling
TTITLE3=We All Wanna Boogie
TTITLE4=The Very Thought Of You
TTITLE5=I Got The Blues
TTITLE6=I Get Evil
TTITLE7=Angel Of Mercy
TTITLE8=Flat Tire
EXTD=
EXTT0=
EXTT1=
EXTT2=
EXTT3=
EXTT4=
EXTT5=
EXTT6=
EXTT7=
EXTT8=
PLAYORDER=
